{
  "accessors": [
    {
      "bufferView": 2,
      "componentType": 5126,
      "count": 2573,
      "max": [
        0.076794996857643127,
        0.076738491654396057,
        0.078978531062602997
      ],
      "min": [
        -0.078978478908538818,
        -0.061208616942167282,
        -0.078978486359119415
      ],
      "type": "VEC3"
    },
    {
      "bufferView": 2,
      "byteOffset": 30876,
      "componentType": 5126,
      "count": 2573,
      "max": [
        0.9999997615814209,
        0.99986112117767334,
        1
      ],
      "min": [
        -1,
        -0.99986779689788818,
        -1
      ],
      "type": "VEC3"
    },
    {
      "bufferView": 1,
      "componentType": 5126,
      "count": 2573,
      "max": [
        1.0000002384185791,
        1
      ],
      "min": [
        2.4835271617007493e-09,
        -1.1920928955078125e-07
      ],
      "type": "VEC2"
    },
    {
      "bufferView": 0,
      "componentType": 5125,
      "count": 13440,
      "max": [
        2572
      ],
      "min": [
        0
      ],
      "type": "SCALAR"
    },
    {
      "bufferView": 2,
      "byteOffset": 61752,
      "componentType": 5126,
      "count": 633,
      "max": [
        0.99387443065643311,
        1.4492737054824829,
        2.1231894493103027
      ],
      "min": [
        -0.99743568897247314,
        -1.3036366701126099,
        0.61230069398880005
      ],
      "type": "VEC3"
    },
    {
      "bufferView": 2,
      "byteOffset": 69348,
      "componentType": 5126,
      "count": 633,
      "max": [
        0.92722541093826294,
        0.99175870418548584,
        0.99999189376831055
      ],
      "min": [
        -0.95082426071166992,
        -0.99993181228637695,
        -0.99999189376831055
      ],
      "type": "VEC3"
    },
    {
      "bufferView": 1,
      "byteOffset": 20584,
      "componentType": 5126,
      "count": 633,
      "max": [
        0.93292152881622314,
        0.92897868156433105
      ],
      "min": [
        0.0004538151843007654,
        0.65803277492523193
      ],
      "type": "VEC2"
    },
    {
      "bufferView": 0,
      "byteOffset": 53760,
      "componentType": 5125,
      "count": 3072,
      "max": [
        632
      ],
      "min": [
        0
      ],
      "type": "SCALAR"
    },
    {
      "bufferView": 2,
      "byteOffset": 76944,
      "componentType": 5126,
      "count": 633,
      "max": [
        0.99387443065643311,
        1.4492737054824829,
        2.1231894493103027
      ],
      "min": [
        -0.99743568897247314,
        -1.3036366701126099,
        0.61230069398880005
      ],
      "type": "VEC3"
    },
    {
      "bufferView": 2,
      "byteOffset": 84540,
      "componentType": 5126,
      "count": 633,
      "max": [
        0.92722541093826294,
        0.99175870418548584,
        0.99999189376831055
      ],
      "min": [
        -0.95082426071166992,
        -0.99993181228637695,
        -0.99999189376831055
      ],
      "type": "VEC3"
    },
    {
      "bufferView": 1,
      "byteOffset": 25648,
      "componentType": 5126,
      "count": 633,
      "max": [
        0.93292152881622314,
        0.92897868156433105
      ],
      "min": [
        0.0004538151843007654,
        0.65803277492523193
      ],
      "type": "VEC2"
    },
    {
      "bufferView": 0,
      "byteOffset": 66048,
      "componentType": 5125,
      "count": 3072,
      "max": [
        632
      ],
      "min": [
        0
      ],
      "type": "SCALAR"
    },
    {
      "bufferView": 2,
      "byteOffset": 92136,
      "componentType": 5126,
      "count": 327,
      "max": [
        1,
        3.4550762176513672,
        1.3908936977386475
      ],
      "min": [
        -2.4418957233428955,
        -1,
        -1
      ],
      "type": "VEC3"
    },
    {
      "bufferView": 2,
      "byteOffset": 96060,
      "componentType": 5126,
      "count": 327,
      "max": [
        0.9877745509147644,
        0.97492378950119019,
        0.99842673540115356
      ],
      "min": [
        -0.99815666675567627,
        -0.88463419675827026,
        -0.99949479103088379
      ],
      "type": "VEC3"
    },
    {
      "bufferView": 1,
      "byteOffset": 30712,
      "componentType": 5126,
      "count": 327,
      "max": [
        1,
        0.99000000953674316
      ],
      "min": [
        0,
        -1.1920928955078125e-07
      ],
      "type": "VEC2"
    },
    {
      "bufferView": 0,
      "byteOffset": 78336,
      "componentType": 5125,
      "count": 1524,
      "max": [
        326
      ],
      "min": [
        0
      ],
      "type": "SCALAR"
    },
    {
      "bufferView": 2,
      "byteOffset": 99984,
      "componentType": 5126,
      "count": 2573,
      "max": [
        0.082404159009456635,
        0.076955586671829224,
        0.081944651901721954
      ],
      "min": [
        -0.079073637723922729,
        -0.058348380029201508,
        -0.079941347241401672
      ],
      "type": "VEC3"
    },
    {
      "bufferView": 2,
      "byteOffset": 130860,
      "componentType": 5126,
      "count": 2573,
      "max": [
        0.99997448921203613,
        0.99949419498443604,
        0.99958181381225586
      ],
      "min": [
        -0.99980258941650391,
        -0.99996364116668701,
        -0.99909043312072754
      ],
      "type": "VEC3"
    },
    {
      "bufferView": 1,
      "byteOffset": 33328,
      "componentType": 5126,
      "count": 2573,
      "max": [
        1.0000002384185791,
        1
      ],
      "min": [
        2.4835271617007493e-09,
        -1.1920928955078125e-07
      ],
      "type": "VEC2"
    },
    {
      "bufferView": 0,
      "byteOffset": 84432,
      "componentType": 5125,
      "count": 13440,
      "max": [
        2572
      ],
      "min": [
        0
      ],
      "type": "SCALAR"
    },
    {
      "bufferView": 2,
      "byteOffset": 161736,
      "componentType": 5126,
      "count": 327,
      "max": [
        0.74591648578643799,
        3.1222372055053711,
        1.2881191968917847
      ],
      "min": [
        -2.707892894744873,
        -1.2894113063812256,
        -1.1484339237213135
      ],
      "type": "VEC3"
    },
    {
      "bufferView": 2,
      "byteOffset": 165660,
      "componentType": 5126,
      "count": 327,
      "max": [
        0.98312509059906006,
        0.97074639797210693,
        0.99838417768478394
      ],
      "min": [
        -0.99649810791015625,
        -0.87319588661193848,
        -0.99936914443969727
      ],
      "type": "VEC3"
    },
    {
      "bufferView": 1,
      "byteOffset": 53912,
      "componentType": 5126,
      "count": 327,
      "max": [
        1,
        0.99000000953674316
      ],
      "min": [
        0,
        -1.1920928955078125e-07
      ],
      "type": "VEC2"
    },
    {
      "bufferView": 0,
      "byteOffset": 138192,
      "componentType": 5125,
      "count": 1524,
      "max": [
        326
      ],
      "min": [
        0
      ],
      "type": "SCALAR"
    },
    {
      "bufferView": 3,
      "componentType": 5126,
      "count": 121,
      "max": [
        5
      ],
      "min": [
        0
      ],
      "type": "SCALAR"
    },
    {
      "bufferView": 5,
      "componentType": 5126,
      "count": 121,
      "max": [
        0,
        1,
        -0,
        1
      ],
      "min": [
        0,
        0,
        -0,
        -1.6292068494294654e-07
      ],
      "type": "VEC4"
    },
    {
      "bufferView": 3,
      "byteOffset": 484,
      "componentType": 5126,
      "count": 241,
      "max": [
        20
      ],
      "min": [
        10
      ],
      "type": "SCALAR"
    },
    {
      "bufferView": 4,
      "componentType": 5126,
      "count": 241,
      "max": [
        0.31044331192970276,
        0.48706474900245667,
        0.79377120733261108
      ],
      "min": [
        0.0041634766384959221,
        0.098543882369995117,
        0.71595227718353271
      ],
      "type": "VEC3"
    }
  ],
  "animations": [
    {
      "channels": [
        {
          "sampler": 0,
          "target": {
            "node": 4,
            "path": "rotation"
          }
        }
      ],
      "name": "PeachesAction",
      "samplers": [
        {
          "input": 24,
          "interpolation": "LINEAR",
          "output": 25
        }
      ]
    },
    {
      "channels": [
        {
          "sampler": 0,
          "target": {
            "node": 17,
            "path": "translation"
          }
        }
      ],
      "name": "CameraAction",
      "samplers": [
        {
          "input": 26,
          "interpolation": "LINEAR",
          "output": 27
        }
      ]
    }
  ],
  "asset": {
    "extras": {
      "author": "yoann-baunach (https://sketchfab.com/yoann-baunach)",
      "license": "CC-BY-4.0 (http://creativecommons.org/licenses/by/4.0/)",
      "source": "https://sketchfab.com/3d-models/test-plum-gltf-650ef72519f3409989e863df82848b05",
      "title": "Test-plum-gltf"
    },
    "generator": "Sketchfab-9.83.0",
    "version": "2.0"
  },
  "bufferViews": [
    {
      "buffer": 0,
      "byteLength": 144288,
      "byteOffset": 0,
      "name": "floatBufferViews",
      "target": 34963
    },
    {
      "buffer": 0,
      "byteLength": 56528,
      "byteOffset": 144288,
      "byteStride": 8,
      "name": "floatBufferViews",
      "target": 34962
    },
    {
      "buffer": 0,
      "byteLength": 169584,
      "byteOffset": 200816,
      "byteStride": 12,
      "name": "floatBufferViews",
      "target": 34962
    },
    {
      "buffer": 0,
      "byteLength": 1448,
      "byteOffset": 370400,
      "name": "floatBufferViews"
    },
    {
      "buffer": 0,
      "byteLength": 2892,
      "byteOffset": 371848,
      "byteStride": 12,
      "name": "floatBufferViews"
    },
    {
      "buffer": 0,
      "byteLength": 1936,
      "byteOffset": 374740,
      "byteStride": 16,
      "name": "floatBufferViews"
    }
  ],
  "buffers": [
    {
      "byteLength": 376676,
      "uri": "scene.bin"
    }
  ],
  "images": [
    {
      "uri": "textures/narciso.001_baseColor.png"
    }
  ],
  "materials": [
    {
      "doubleSided": true,
      "emissiveFactor": [
        0,
        0,
        0
      ],
      "name": "Prune",
      "pbrMetallicRoughness": {
        "baseColorFactor": [
          0.033103399999999998,
          0.0071941799999999997,
          0.012688100000000001,
          1
        ],
        "metallicFactor": 0,
        "roughnessFactor": 0.25
      }
    },
    {
      "alphaMode": "BLEND",
      "doubleSided": true,
      "emissiveFactor": [
        0,
        0,
        0
      ],
      "name": "narciso.001",
      "pbrMetallicRoughness": {
        "baseColorFactor": [
          1,
          1,
          1,
          1
        ],
        "baseColorTexture": {
          "index": 0,
          "texCoord": 0
        },
        "metallicFactor": 0,
        "roughnessFactor": 0.20000000000000001
      }
    },
    {
      "doubleSided": true,
      "emissiveFactor": [
        0,
        0,
        0
      ],
      "name": "Wood",
      "pbrMetallicRoughness": {
        "baseColorFactor": [
          0.033103399999999998,
          0.0182521,
          0.0048907400000000002,
          1
        ],
        "metallicFactor": 0,
        "roughnessFactor": 0.69999999999999996
      }
    }
  ],
  "meshes": [
    {
      "primitives": [
        {
          "attributes": {
            "NORMAL": 1,
            "POSITION": 0,
            "TEXCOORD_0": 2
          },
          "indices": 3,
          "material": 0,
          "mode": 4
        }
      ]
    },
    {
      "primitives": [
        {
          "attributes": {
            "NORMAL": 5,
            "POSITION": 4,
            "TEXCOORD_0": 6
          },
          "indices": 7,
          "material": 1,
          "mode": 4
        }
      ]
    },
    {
      "primitives": [
        {
          "attributes": {
            "NORMAL": 9,
            "POSITION": 8,
            "TEXCOORD_0": 10
          },
          "indices": 11,
          "material": 1,
          "mode": 4
        }
      ]
    },
    {
      "primitives": [
        {
          "attributes": {
            "NORMAL": 13,
            "POSITION": 12,
            "TEXCOORD_0": 14
          },
          "indices": 15,
          "material": 2,
          "mode": 4
        }
      ]
    },
    {
      "primitives": [
        {
          "attributes": {
            "NORMAL": 17,
            "POSITION": 16,
            "TEXCOORD_0": 18
          },
          "indices": 19,
          "material": 0,
          "mode": 4
        }
      ]
    },
    {
      "primitives": [
        {
          "attributes": {
            "NORMAL": 21,
            "POSITION": 20,
            "TEXCOORD_0": 22
          },
          "indices": 23,
          "material": 2,
          "mode": 4
        }
      ]
    }
  ],
  "nodes": [
    {
      "children": [
        1
      ],
      "name": "RootNode (gltf orientation matrix)",
      "rotation": [
        -0.70710678118654746,
        -0,
        -0,
        0.70710678118654757
      ]
    },
    {
      "children": [
        2
      ],
      "name": "RootNode (model correction matrix)"
    },
    {
      "children": [
        3
      ],
      "name": "root"
    },
    {
      "children": [
        4,
        17
      ],
      "matrix": [
        1,
        0,
        0,
        0,
        0,
        2.2204460492503131e-16,
        1,
        0,
        0,
        -1,
        2.2204460492503131e-16,
        0,
        0,
        0,
        0,
        1
      ],
      "name": "GLTF_SceneRootNode"
    },
    {
      "children": [
        5,
        13
      ],
      "name": "Peaches_6",
      "scale": [
        1.429601788520813,
        1.4296016693115234,
        1.429601788520813
      ],
      "translation": [
        0.0010029077529907227,
        0.083018124103546143,
        -0.00060648471117019653
      ]
    },
    {
      "children": [
        6,
        7,
        9,
        11
      ],
      "matrix": [
        0.42575028538703918,
        0,
        0,
        0,
        -0,
        -0.38897146244193043,
        -0.17310266401655011,
        0,
        0,
        0.17310266401655011,
        -0.38897146244193043,
        0,
        -0.012976229190826416,
        -0.013333283364772797,
        0.012852023355662823,
        1
      ],
      "name": "Peach_3"
    },
    {
      "mesh": 0,
      "name": ""
    },
    {
      "children": [
        8
      ],
      "matrix": [
        -0.039584752795140635,
        0.020542269492669851,
        0.01409332493786845,
        -0,
        0.0019027053047607147,
        -0.00098739561722232866,
        0.0067834571626840716,
        -0,
        -0.0032768626159811473,
        -0.0063144833561920933,
        1.5761096044217102e-09,
        -0,
        0.047300629317760468,
        -0.0607900470495224,
        -0.0089655295014381409,
        1
      ],
      "name": "Leaf_0"
    },
    {
      "mesh": 1,
      "name": ""
    },
    {
      "children": [
        10
      ],
      "matrix": [
        0.023800228655084309,
        0.0086742102663511633,
        -0.018912093366093577,
        -0,
        -0.0064730053954393805,
        -0.00024701790515354514,
        -0.0082593550445321049,
        -0,
        0.0013575573418445331,
        -0.0056745165328405574,
        -0.00089423069620504249,
        -0,
        -0.022474449127912521,
        -0.050023674964904785,
        0.013262547552585602,
        1
      ],
      "name": "Leaf.001_1"
    },
    {
      "mesh": 2,
      "name": ""
    },
    {
      "children": [
        12
      ],
      "matrix": [
        -0.0024268361739814281,
        0,
        0,
        -0,
        -0,
        -0.0052675623446702957,
        0,
        -0,
        -0,
        0,
        -0.0024268361739814281,
        -0,
        0.0036854424979537725,
        -0.03947913646697998,
        -0.00028349558124318719,
        1
      ],
      "name": "Trognon_2"
    },
    {
      "mesh": 3,
      "name": ""
    },
    {
      "children": [
        14,
        15
      ],
      "matrix": [
        -0.27019475977225438,
        0.001891630883908791,
        -0.22857358710072354,
        0,
        -0.08150180395642817,
        -0.33143819920116302,
        0.093599623117734815,
        0,
        -0.21355780608215907,
        0.12409615315281862,
        0.2534717373193528,
        0,
        0.018340775743126869,
        0.017475500702857971,
        -0.022867260500788689,
        1
      ],
      "name": "Peach.001_5"
    },
    {
      "mesh": 4,
      "name": ""
    },
    {
      "children": [
        16
      ],
      "matrix": [
        -0.0024268361739814281,
        0,
        0,
        -0,
        -0,
        -0.0052675623446702957,
        0,
        -0,
        -0,
        0,
        -0.0024268361739814281,
        -0,
        0.0036854424979537725,
        -0.03947913646697998,
        -0.00028349558124318719,
        1
      ],
      "name": "Trognon.001_4"
    },
    {
      "mesh": 5,
      "name": ""
    },
    {
      "name": "Camera_7",
      "rotation": [
        0.57357645034790039,
        0,
        0,
        0.81915205717086792
      ],
      "translation": [
        0.0041634766384959221,
        0.098543882369995117,
        0.79377120733261108
      ]
    }
  ],
  "samplers": [
    {
      "magFilter": 9729,
      "minFilter": 9987,
      "wrapS": 10497,
      "wrapT": 10497
    }
  ],
  "scene": 0,
  "scenes": [
    {
      "name": "OSG_Scene",
      "nodes": [
        0
      ]
    }
  ],
  "textures": [
    {
      "sampler": 0,
      "source": 0
    }
  ]
}

